<?xml version="1.0" encoding="utf-8"?>
<!-- Generator: Adobe Illustrator 27.8.1, SVG Export Plug-In . SVG Version: 6.00 Build 0)  -->
<svg version="1.1" id="Layer_1" xmlns="http://www.w3.org/2000/svg" xmlns:xlink="http://www.w3.org/1999/xlink" x="0px" y="0px"
	 viewBox="0 0 207 49" style="enable-background:new 0 0 207 49;" xml:space="preserve">
<style type="text/css">
	.st0{fill:#5F6FFF;}
	.st1{display:none;fill:#000B6D;}
	.st2{fill:#5F5F5F;}
	.st3{fill:#000B6D;}
</style>
<path class="st0" d="M23,3c12.7,0,23,10.3,23,23v16.1c0,1.8-0.7,3.6-2,4.9c-1.3,1.3-3,2-4.9,2h-15V38.9c0-2.3,0.1-4.7,1.3-6.6
	c0.9-1.4,2-2.6,3.4-3.5c1.4-0.9,2.9-1.5,4.5-1.8l0.4-0.1c0.2-0.1,0.3-0.2,0.5-0.3c0.1-0.2,0.2-0.3,0.2-0.5s-0.1-0.4-0.2-0.5
	c-0.1-0.2-0.3-0.3-0.5-0.3l-0.4-0.1c-2.4-0.4-4.6-1.5-6.3-3.2c-1.7-1.7-2.8-3.9-3.2-6.3l-0.1-0.4c-0.1-0.2-0.2-0.3-0.3-0.5
	c-0.2-0.1-0.3-0.2-0.5-0.2s-0.4,0.1-0.5,0.2c-0.2,0.1-0.3,0.3-0.3,0.5l-0.1,0.4c-0.3,1.6-0.9,3.2-1.8,4.5c-0.9,1.4-2.1,2.5-3.5,3.4
	c-2,1.2-4.3,1.3-6.6,1.3H0C0.6,12.7,10.7,3,23,3z"/>
<path class="st0" d="M0,27.1h10.1c2.3,0,4.7,0.1,6.6,1.3c1.5,0.9,2.8,2.2,3.8,3.8c1.2,2,1.3,4.3,1.3,6.6V49h-15
	c-1.8,0-3.6-0.7-4.9-2c-1.3-1.3-2-3-2-4.9V27.1z M46,5.3c0,0.6-0.2,1.2-0.7,1.6c-0.4,0.4-1,0.7-1.6,0.7s-1.2-0.2-1.6-0.7
	c-0.4-0.4-0.7-1-0.7-1.6s0.2-1.2,0.7-1.6c0.4-0.4,1-0.7,1.6-0.7s1.2,0.2,1.6,0.7C45.8,4.1,46,4.7,46,5.3z"/>
<path class="st1" d="M62.5,23.6v-3.6h5.2c0.7,0,1.3-0.1,1.9-0.4c0.6-0.3,1-0.7,1.3-1.2c0.3-0.5,0.5-1.2,0.5-1.9
	c0-0.7-0.2-1.4-0.5-1.9c-0.3-0.5-0.8-0.9-1.3-1.2c-0.6-0.3-1.2-0.4-1.9-0.4h-5.2V9.5h5.7c1.4,0,2.7,0.3,3.8,0.9
	c1.2,0.6,2.1,1.4,2.7,2.5c0.7,1,1,2.3,1,3.7s-0.3,2.7-1,3.8c-0.7,1-1.6,1.9-2.7,2.4c-1.1,0.6-2.4,0.9-3.8,0.9H62.5z M59.3,32V9.5
	h4.4V32H59.3z M78.6,32V16.5h4.2V32H78.6z M82.8,23.5l-1.6-1.1c0.2-1.9,0.7-3.4,1.7-4.5c0.9-1.1,2.2-1.7,4-1.7c0.7,0,1.4,0.1,2,0.4
	c0.6,0.2,1.1,0.6,1.6,1.2l-2.6,3c-0.2-0.3-0.5-0.4-0.9-0.6c-0.3-0.1-0.7-0.2-1.1-0.2c-0.9,0-1.6,0.3-2.2,0.9
	C83,21.5,82.8,22.3,82.8,23.5z M98.8,32.3c-1.6,0-3.1-0.3-4.3-1c-1.3-0.7-2.3-1.7-3-2.9c-0.7-1.2-1.1-2.6-1.1-4.2
	c0-1.5,0.4-2.9,1.1-4.1c0.7-1.2,1.7-2.2,2.9-2.9c1.2-0.7,2.6-1.1,4.1-1.1c1.5,0,2.8,0.3,3.9,1c1.2,0.7,2,1.6,2.7,2.8
	c0.7,1.2,1,2.5,1,3.9c0,0.3,0,0.6-0.1,0.9c0,0.3-0.1,0.6-0.2,1l-13,0v-3.1l11,0l-1.7,1.3c0-0.9-0.2-1.7-0.5-2.3
	c-0.3-0.6-0.7-1.1-1.2-1.4c-0.5-0.3-1.2-0.5-2-0.5c-0.8,0-1.6,0.2-2.2,0.6c-0.6,0.4-1.1,0.9-1.4,1.6c-0.3,0.7-0.5,1.5-0.5,2.4
	c0,0.9,0.2,1.8,0.5,2.5c0.4,0.7,0.9,1.2,1.5,1.6c0.7,0.4,1.4,0.5,2.3,0.5c0.8,0,1.5-0.1,2.1-0.4c0.6-0.3,1.2-0.7,1.7-1.2l2.5,2.5
	c-0.7,0.9-1.7,1.5-2.8,2C101.3,32.1,100.1,32.3,98.8,32.3z M114.1,32.4c-0.9,0-1.7-0.1-2.6-0.4c-0.8-0.2-1.6-0.6-2.3-1
	c-0.7-0.4-1.3-0.9-1.8-1.5l2.5-2.5c0.5,0.6,1.2,1,1.9,1.3s1.5,0.4,2.3,0.4c0.7,0,1.2-0.1,1.5-0.3c0.4-0.2,0.5-0.5,0.5-0.9
	c0-0.4-0.2-0.8-0.6-1c-0.4-0.2-0.8-0.4-1.4-0.6c-0.6-0.2-1.2-0.4-1.9-0.5c-0.6-0.2-1.3-0.5-1.9-0.8c-0.6-0.3-1.1-0.8-1.5-1.4
	c-0.4-0.6-0.5-1.4-0.5-2.3c0-1,0.2-1.8,0.7-2.6c0.5-0.7,1.2-1.3,2.1-1.7c0.9-0.4,2-0.6,3.2-0.6c1.3,0,2.4,0.2,3.5,0.7
	c1,0.4,1.9,1.1,2.6,2l-2.5,2.5c-0.5-0.6-1-1-1.6-1.2c-0.6-0.3-1.2-0.4-1.9-0.4c-0.6,0-1.1,0.1-1.4,0.3c-0.3,0.2-0.5,0.5-0.5,0.8
	c0,0.4,0.2,0.7,0.5,0.9c0.4,0.2,0.9,0.4,1.5,0.6c0.6,0.1,1.2,0.3,1.9,0.5c0.7,0.2,1.3,0.5,1.9,0.8c0.6,0.4,1.1,0.8,1.4,1.4
	c0.4,0.6,0.6,1.4,0.6,2.3c0,1.5-0.5,2.7-1.6,3.6C117.4,31.9,116,32.4,114.1,32.4z M130.3,32.3c-1.6,0-3-0.4-4.3-1.1
	c-1.3-0.7-2.3-1.7-3-2.9c-0.7-1.2-1.1-2.6-1.1-4.1c0-1.5,0.4-2.9,1.1-4.1s1.7-2.2,3-2.9c1.3-0.7,2.7-1.1,4.3-1.1
	c1.2,0,2.3,0.2,3.4,0.7c1,0.4,1.9,1.1,2.7,1.9l-2.7,2.7c-0.4-0.4-0.9-0.8-1.5-1c-0.6-0.2-1.2-0.4-1.9-0.4c-0.8,0-1.5,0.2-2.1,0.5
	c-0.6,0.3-1.1,0.8-1.4,1.4c-0.3,0.6-0.5,1.3-0.5,2.1c0,0.8,0.2,1.5,0.5,2.2c0.4,0.6,0.8,1.1,1.4,1.5c0.6,0.3,1.3,0.5,2.1,0.5
	c0.7,0,1.3-0.1,1.9-0.4c0.6-0.3,1.1-0.6,1.5-1.1l2.7,2.7c-0.8,0.9-1.7,1.5-2.7,2C132.6,32.1,131.5,32.3,130.3,32.3z M138.7,32V16.5
	h4.2V32H138.7z M142.9,23.5l-1.6-1.1c0.2-1.9,0.7-3.4,1.7-4.5c0.9-1.1,2.2-1.7,4-1.7c0.7,0,1.4,0.1,2,0.4c0.6,0.2,1.1,0.6,1.6,1.2
	l-2.6,3c-0.2-0.3-0.5-0.4-0.9-0.6c-0.3-0.1-0.7-0.2-1.1-0.2c-0.9,0-1.6,0.3-2.2,0.9C143.2,21.5,142.9,22.3,142.9,23.5z M152,32V16.5
	h4.2V32H152z M154.2,14c-0.7,0-1.2-0.2-1.7-0.7c-0.4-0.5-0.7-1-0.7-1.7c0-0.7,0.2-1.2,0.7-1.7c0.4-0.5,1-0.7,1.7-0.7
	c0.7,0,1.3,0.2,1.7,0.7c0.4,0.5,0.7,1,0.7,1.7c0,0.7-0.2,1.3-0.7,1.7C155.4,13.8,154.9,14,154.2,14z M168.6,32.3
	c-1.1,0-2.1-0.2-3-0.7c-0.9-0.5-1.6-1.1-2.1-1.9c-0.5-0.8-0.8-1.7-0.9-2.7v-5.5c0-1,0.3-1.9,0.9-2.7c0.6-0.8,1.3-1.5,2.1-1.9
	c0.9-0.5,1.9-0.7,3-0.7c1.4,0,2.7,0.4,3.8,1.1c1.1,0.7,2,1.7,2.7,2.9c0.7,1.2,1,2.6,1,4.1c0,1.5-0.3,2.9-1,4.1
	c-0.6,1.2-1.5,2.2-2.7,2.9S170,32.3,168.6,32.3z M167.8,28.4c0.8,0,1.5-0.2,2-0.5c0.6-0.4,1.1-0.9,1.4-1.5c0.3-0.6,0.5-1.4,0.5-2.2
	c0-0.8-0.2-1.5-0.5-2.1c-0.3-0.6-0.8-1.1-1.4-1.5c-0.6-0.4-1.3-0.5-2-0.5c-0.7,0-1.4,0.2-2,0.5c-0.6,0.3-1.1,0.8-1.4,1.5
	c-0.3,0.6-0.5,1.3-0.5,2.1c0,0.8,0.2,1.6,0.5,2.2c0.3,0.6,0.8,1.1,1.4,1.5C166.4,28.3,167.1,28.4,167.8,28.4z M160,38.5V16.5h4.2
	v4.1l-0.7,3.7l0.7,3.7v10.4H160z M180.7,32V10.1h4.2V32H180.7z M177.1,20.2v-3.7h11.4v3.7H177.1z M197.7,32.3c-1.6,0-3-0.4-4.2-1.1
	c-1.2-0.7-2.2-1.7-3-2.9c-0.7-1.2-1.1-2.6-1.1-4.1c0-1.5,0.4-2.9,1.1-4.1c0.7-1.2,1.7-2.2,3-2.9c1.3-0.7,2.7-1.1,4.2-1.1
	c1.6,0,3,0.4,4.2,1.1c1.3,0.7,2.3,1.7,3,2.9c0.7,1.2,1.1,2.5,1.1,4.1c0,1.5-0.4,2.9-1.1,4.1c-0.7,1.2-1.7,2.2-3,2.9
	C200.7,32,199.3,32.3,197.7,32.3z M197.7,28.4c0.8,0,1.5-0.2,2.1-0.5c0.6-0.4,1.1-0.9,1.4-1.5c0.3-0.6,0.5-1.4,0.5-2.2
	c0-0.8-0.2-1.5-0.5-2.1s-0.8-1.1-1.4-1.4c-0.6-0.4-1.3-0.5-2.1-0.5c-0.8,0-1.5,0.2-2,0.5c-0.6,0.3-1.1,0.8-1.4,1.4s-0.5,1.3-0.5,2.1
	c0,0.8,0.2,1.5,0.5,2.2c0.3,0.6,0.8,1.1,1.4,1.5C196.3,28.2,196.9,28.4,197.7,28.4z"/>
<path class="st2" d="M60,46v-1.5h2.1c0.5,0,1-0.1,1.4-0.3c0.4-0.2,0.7-0.6,0.9-1c0.2-0.4,0.3-0.9,0.3-1.5c0-0.6-0.1-1-0.3-1.4
	c-0.2-0.4-0.6-0.7-1-1c-0.4-0.2-0.9-0.3-1.4-0.3h-2.2v-1.5h2.2c0.6,0,1.2,0.1,1.7,0.3c0.5,0.2,1,0.5,1.4,0.9
	c0.4,0.4,0.7,0.8,0.9,1.3c0.2,0.5,0.3,1.1,0.3,1.7c0,0.6-0.1,1.2-0.3,1.7c-0.2,0.5-0.5,1-0.9,1.3c-0.4,0.4-0.9,0.7-1.4,0.9
	c-0.5,0.2-1.1,0.3-1.7,0.3H60z M58.9,46v-8.4h1.6V46H58.9z M70.1,46.1c-0.5,0-1-0.1-1.4-0.4c-0.4-0.3-0.8-0.6-1-1.1
	c-0.2-0.5-0.4-1-0.4-1.5c0-0.6,0.1-1.1,0.4-1.5c0.2-0.5,0.6-0.8,1-1.1c0.4-0.3,0.9-0.4,1.4-0.4c0.4,0,0.8,0.1,1.1,0.3
	c0.3,0.2,0.6,0.4,0.8,0.7c0.2,0.3,0.3,0.6,0.3,1v2.1c0,0.4-0.1,0.7-0.3,1c-0.2,0.3-0.5,0.5-0.8,0.7C70.9,46,70.5,46.1,70.1,46.1z
	 M70.4,44.7c0.4,0,0.8-0.1,1.1-0.4c0.3-0.3,0.4-0.7,0.4-1.1c0-0.3-0.1-0.6-0.2-0.8c-0.1-0.2-0.3-0.4-0.5-0.6
	c-0.2-0.1-0.5-0.2-0.8-0.2c-0.3,0-0.5,0.1-0.8,0.2c-0.2,0.1-0.4,0.3-0.5,0.6c-0.1,0.2-0.2,0.5-0.2,0.8c0,0.3,0.1,0.6,0.2,0.8
	c0.1,0.2,0.3,0.4,0.5,0.6C69.8,44.6,70.1,44.7,70.4,44.7z M71.8,46v-1.6L72,43l-0.3-1.4v-1.4h1.6V46H71.8z M76.7,46.1
	c-0.3,0-0.7,0-1-0.1c-0.3-0.1-0.6-0.2-0.9-0.4c-0.3-0.2-0.5-0.4-0.7-0.6l0.9-0.9c0.2,0.2,0.4,0.4,0.7,0.5c0.3,0.1,0.6,0.2,0.9,0.2
	c0.3,0,0.4,0,0.6-0.1c0.1-0.1,0.2-0.2,0.2-0.3c0-0.2-0.1-0.3-0.2-0.4c-0.1-0.1-0.3-0.2-0.5-0.2c-0.2-0.1-0.5-0.1-0.7-0.2
	c-0.2-0.1-0.5-0.2-0.7-0.3c-0.2-0.1-0.4-0.3-0.6-0.5c-0.1-0.2-0.2-0.5-0.2-0.9c0-0.4,0.1-0.7,0.3-1c0.2-0.3,0.4-0.5,0.8-0.6
	c0.3-0.2,0.7-0.2,1.2-0.2c0.5,0,0.9,0.1,1.3,0.3c0.4,0.2,0.7,0.4,1,0.8L78.1,42c-0.2-0.2-0.4-0.4-0.6-0.5c-0.2-0.1-0.5-0.1-0.7-0.1
	c-0.2,0-0.4,0-0.5,0.1c-0.1,0.1-0.2,0.2-0.2,0.3c0,0.1,0.1,0.3,0.2,0.3c0.1,0.1,0.3,0.2,0.6,0.2c0.2,0.1,0.5,0.1,0.7,0.2
	c0.2,0.1,0.5,0.2,0.7,0.3c0.2,0.1,0.4,0.3,0.5,0.5c0.1,0.2,0.2,0.5,0.2,0.9c0,0.6-0.2,1-0.6,1.4C78,46,77.4,46.1,76.7,46.1z
	 M83.9,46v-3.3c0-0.3-0.1-0.6-0.3-0.8c-0.2-0.2-0.5-0.3-0.8-0.3c-0.2,0-0.4,0-0.6,0.1c-0.2,0.1-0.3,0.2-0.4,0.4
	c-0.1,0.2-0.1,0.4-0.1,0.6L81,42.4c0-0.5,0.1-0.9,0.3-1.2c0.2-0.3,0.5-0.6,0.8-0.8c0.3-0.2,0.7-0.3,1.2-0.3c0.4,0,0.8,0.1,1.2,0.3
	c0.3,0.2,0.6,0.5,0.8,0.8c0.2,0.3,0.3,0.7,0.3,1.2V46H83.9z M80,46v-8.7h1.6V46H80z M90,46.1c-0.4,0-0.8-0.1-1.1-0.3
	c-0.3-0.2-0.6-0.4-0.8-0.7c-0.2-0.3-0.3-0.6-0.3-1v-2.1c0-0.4,0.1-0.7,0.3-1c0.2-0.3,0.5-0.5,0.8-0.7c0.3-0.2,0.7-0.3,1.1-0.3
	c0.5,0,1,0.1,1.4,0.4c0.4,0.3,0.8,0.6,1,1.1c0.2,0.5,0.4,1,0.4,1.5c0,0.6-0.1,1.1-0.4,1.5c-0.2,0.5-0.6,0.8-1,1.1
	C91,46,90.5,46.1,90,46.1z M89.7,44.7c0.3,0,0.5-0.1,0.8-0.2c0.2-0.1,0.4-0.3,0.5-0.6c0.1-0.2,0.2-0.5,0.2-0.8
	c0-0.3-0.1-0.6-0.2-0.8c-0.1-0.2-0.3-0.4-0.5-0.6c-0.2-0.1-0.5-0.2-0.8-0.2s-0.5,0.1-0.8,0.2c-0.2,0.1-0.4,0.3-0.5,0.6
	c-0.1,0.2-0.2,0.5-0.2,0.8c0,0.3,0.1,0.6,0.2,0.8c0.1,0.2,0.3,0.4,0.5,0.6C89.2,44.6,89.4,44.7,89.7,44.7z M86.8,46v-8.7h1.6v4.3
	L88.1,43l0.3,1.4V46H86.8z M96.6,46.1c-0.6,0-1.1-0.1-1.6-0.4c-0.5-0.3-0.8-0.6-1.1-1.1c-0.3-0.5-0.4-1-0.4-1.5s0.1-1.1,0.4-1.5
	c0.3-0.5,0.6-0.8,1.1-1.1c0.5-0.3,1-0.4,1.6-0.4c0.6,0,1.1,0.1,1.6,0.4c0.5,0.3,0.8,0.6,1.1,1.1c0.3,0.4,0.4,1,0.4,1.5
	s-0.1,1.1-0.4,1.5c-0.3,0.5-0.6,0.8-1.1,1.1C97.7,46,97.1,46.1,96.6,46.1z M96.6,44.7c0.3,0,0.6-0.1,0.8-0.2
	c0.2-0.1,0.4-0.3,0.5-0.6c0.1-0.2,0.2-0.5,0.2-0.8s-0.1-0.6-0.2-0.8c-0.1-0.2-0.3-0.4-0.5-0.5c-0.2-0.1-0.5-0.2-0.8-0.2
	c-0.3,0-0.5,0.1-0.8,0.2c-0.2,0.1-0.4,0.3-0.5,0.5s-0.2,0.5-0.2,0.8s0.1,0.6,0.2,0.8c0.1,0.2,0.3,0.4,0.5,0.6
	C96,44.6,96.3,44.7,96.6,44.7z M103.1,46.1c-0.5,0-1-0.1-1.4-0.4c-0.4-0.3-0.8-0.6-1-1.1c-0.2-0.5-0.4-1-0.4-1.5
	c0-0.6,0.1-1.1,0.4-1.5c0.2-0.5,0.6-0.8,1-1.1c0.4-0.3,0.9-0.4,1.4-0.4c0.4,0,0.8,0.1,1.1,0.3c0.3,0.2,0.6,0.4,0.8,0.7
	c0.2,0.3,0.3,0.6,0.3,1v2.1c0,0.4-0.1,0.7-0.3,1c-0.2,0.3-0.5,0.5-0.8,0.7C103.9,46,103.5,46.1,103.1,46.1z M103.4,44.7
	c0.4,0,0.8-0.1,1.1-0.4c0.3-0.3,0.4-0.7,0.4-1.1c0-0.3-0.1-0.6-0.2-0.8c-0.1-0.2-0.3-0.4-0.5-0.6c-0.2-0.1-0.5-0.2-0.8-0.2
	c-0.3,0-0.5,0.1-0.8,0.2c-0.2,0.1-0.4,0.3-0.5,0.6c-0.1,0.2-0.2,0.5-0.2,0.8c0,0.3,0.1,0.6,0.2,0.8c0.1,0.2,0.3,0.4,0.5,0.6
	C102.8,44.6,103.1,44.7,103.4,44.7z M104.8,46v-1.6L105,43l-0.3-1.4v-1.4h1.6V46H104.8z M107.7,46v-5.8h1.6V46H107.7z M109.3,42.8
	l-0.6-0.4c0.1-0.7,0.3-1.3,0.6-1.7c0.3-0.4,0.8-0.6,1.5-0.6c0.3,0,0.5,0,0.8,0.1c0.2,0.1,0.4,0.2,0.6,0.4l-1,1.1
	c-0.1-0.1-0.2-0.2-0.3-0.2c-0.1,0-0.3-0.1-0.4-0.1c-0.3,0-0.6,0.1-0.8,0.3C109.4,42,109.3,42.4,109.3,42.8z M115,46.1
	c-0.5,0-1-0.1-1.4-0.4c-0.4-0.3-0.8-0.6-1-1.1c-0.2-0.5-0.4-1-0.4-1.5c0-0.6,0.1-1.1,0.4-1.5c0.2-0.5,0.6-0.8,1-1.1
	c0.4-0.3,0.9-0.4,1.5-0.4c0.4,0,0.8,0.1,1.1,0.3c0.3,0.2,0.6,0.4,0.8,0.7c0.2,0.3,0.3,0.6,0.3,1v2.1c0,0.4-0.1,0.7-0.3,1
	c-0.2,0.3-0.5,0.5-0.8,0.7C115.8,46,115.4,46.1,115,46.1z M115.3,44.7c0.3,0,0.6-0.1,0.8-0.2c0.2-0.1,0.4-0.3,0.5-0.6
	c0.1-0.2,0.2-0.5,0.2-0.8c0-0.3-0.1-0.6-0.2-0.8c-0.1-0.2-0.3-0.4-0.5-0.6c-0.2-0.1-0.5-0.2-0.8-0.2c-0.3,0-0.6,0.1-0.8,0.2
	c-0.2,0.1-0.4,0.3-0.5,0.6c-0.1,0.2-0.2,0.5-0.2,0.8c0,0.3,0.1,0.6,0.2,0.8c0.1,0.2,0.3,0.4,0.5,0.6C114.7,44.6,115,44.7,115.3,44.7
	z M118.2,46h-1.6v-1.6l0.3-1.4l-0.3-1.4v-4.3h1.6V46z M123.3,42.9v-1.3h2c0.3,0,0.5-0.1,0.7-0.2s0.4-0.3,0.5-0.4
	c0.1-0.2,0.2-0.4,0.2-0.7c0-0.3-0.1-0.5-0.2-0.7c-0.1-0.2-0.3-0.4-0.5-0.5c-0.2-0.1-0.4-0.2-0.7-0.2h-2v-1.3h2.1
	c0.5,0,1,0.1,1.4,0.3c0.4,0.2,0.8,0.5,1,0.9c0.2,0.4,0.4,0.9,0.4,1.4s-0.1,1-0.4,1.4c-0.2,0.4-0.6,0.7-1,0.9
	c-0.4,0.2-0.9,0.3-1.4,0.3H123.3z M122.1,46v-8.4h1.6V46H122.1z M131.5,46.1c-0.5,0-1-0.1-1.4-0.4s-0.8-0.6-1-1.1
	c-0.2-0.5-0.4-1-0.4-1.5c0-0.6,0.1-1.1,0.4-1.5c0.2-0.5,0.6-0.8,1-1.1s0.9-0.4,1.4-0.4c0.4,0,0.8,0.1,1.1,0.3
	c0.3,0.2,0.6,0.4,0.8,0.7c0.2,0.3,0.3,0.6,0.3,1v2.1c0,0.4-0.1,0.7-0.3,1c-0.2,0.3-0.5,0.5-0.8,0.7C132.3,46,131.9,46.1,131.5,46.1z
	 M131.8,44.7c0.4,0,0.8-0.1,1.1-0.4c0.3-0.3,0.4-0.7,0.4-1.1c0-0.3-0.1-0.6-0.2-0.8c-0.1-0.2-0.3-0.4-0.5-0.6
	c-0.2-0.1-0.5-0.2-0.8-0.2c-0.3,0-0.5,0.1-0.8,0.2c-0.2,0.1-0.4,0.3-0.5,0.6c-0.1,0.2-0.2,0.5-0.2,0.8c0,0.3,0.1,0.6,0.2,0.8
	c0.1,0.2,0.3,0.4,0.5,0.6C131.2,44.6,131.5,44.7,131.8,44.7z M133.2,46v-1.6l0.3-1.4l-0.3-1.4v-1.4h1.6V46H133.2z M140,46v-3.3
	c0-0.3-0.1-0.6-0.3-0.8c-0.2-0.2-0.5-0.3-0.8-0.3c-0.2,0-0.4,0-0.6,0.1c-0.2,0.1-0.3,0.2-0.4,0.4c-0.1,0.2-0.1,0.4-0.1,0.6l-0.6-0.3
	c0-0.5,0.1-0.9,0.3-1.2c0.2-0.3,0.5-0.6,0.8-0.8c0.4-0.2,0.7-0.3,1.2-0.3c0.4,0,0.8,0.1,1.1,0.3c0.3,0.2,0.6,0.5,0.8,0.8
	c0.2,0.3,0.3,0.7,0.3,1.1V46H140z M136.1,46v-5.8h1.6V46H136.1z M145.6,46.1c-0.6,0-1.1-0.1-1.6-0.4c-0.5-0.3-0.8-0.6-1.1-1.1
	c-0.3-0.5-0.4-1-0.4-1.6c0-0.6,0.1-1.1,0.4-1.5c0.3-0.5,0.6-0.8,1.1-1.1c0.5-0.3,1-0.4,1.5-0.4c0.6,0,1.1,0.1,1.5,0.4
	c0.4,0.2,0.8,0.6,1,1c0.2,0.4,0.4,0.9,0.4,1.5c0,0.1,0,0.2,0,0.3c0,0.1,0,0.2-0.1,0.4l-4.9,0v-1.2l4.1,0l-0.6,0.5
	c0-0.3-0.1-0.6-0.2-0.9c-0.1-0.2-0.3-0.4-0.5-0.5c-0.2-0.1-0.4-0.2-0.7-0.2c-0.3,0-0.6,0.1-0.8,0.2c-0.2,0.1-0.4,0.3-0.5,0.6
	c-0.1,0.2-0.2,0.5-0.2,0.9c0,0.4,0.1,0.7,0.2,0.9c0.1,0.3,0.3,0.5,0.6,0.6c0.2,0.1,0.5,0.2,0.9,0.2c0.3,0,0.6,0,0.8-0.1
	c0.2-0.1,0.4-0.3,0.6-0.5l0.9,0.9c-0.3,0.3-0.6,0.6-1,0.7C146.6,46,146.1,46.1,145.6,46.1z M149.4,46v-8.7h1.6V46H149.4z"/>
<g>
	<g>
		<path class="st3" d="M51.9,7.1c1.6-0.3,5.1-0.6,8.3-0.6c4,0,6.2,0.4,8.1,1.3c2,0.9,3.5,2.7,3.5,5.3c0,2.3-1.4,4.5-4.5,5.5v0.1
			c3,0.8,5.4,3,5.4,6.5c0,2.5-1.2,4.4-3,5.7c-2,1.5-5.4,2.3-10.9,2.3c-3.3,0-5.6-0.2-7-0.4L51.9,7.1L51.9,7.1z M58.1,17h2.2
			c3.6,0,5.3-1.2,5.3-3.1c0-2-1.7-2.9-4.6-2.9c-1.5,0-2.4,0.1-2.9,0.2C58.1,11.2,58.1,17,58.1,17z M58.1,28.7
			c0.7,0.1,1.5,0.1,2.7,0.1c2.9,0,5.5-1,5.5-3.8c0-2.6-2.5-3.6-5.8-3.6h-2.3v7.3H58.1z"/>
		<path class="st3" d="M97.4,23.2c0,6.7-5.1,10.2-11,10.2s-10.7-3.7-10.7-9.8c0-5.9,4.2-10.2,11.1-10.2
			C93.1,13.5,97.4,17.6,97.4,23.2z M82.1,23.5c0,3.3,1.7,5.6,4.4,5.6c2.5,0,4.3-2,4.3-5.7c0-2.9-1.3-5.6-4.3-5.6
			C83.4,17.8,82.1,20.6,82.1,23.5z"/>
		<path class="st3" d="M101.3,5.1h6.2V33h-6.2V5.1z"/>
		<path class="st3" d="M112.6,20.2c0-2.5-0.1-4.5-0.2-6.2h5.4l0.3,2.8h0.1c0.7-1.1,2.7-3.3,6.3-3.3c4,0,7.4,2.5,7.4,8.6v11h-6.2
			V22.9c0-2.7-1-4.5-3.4-4.5c-1.9,0-2.9,1.3-3.4,2.4c-0.2,0.4-0.2,0.9-0.2,1.4V33h-6.2L112.6,20.2L112.6,20.2z"/>
		<path class="st3" d="M143.6,8.6c0,1.7-1.2,3-3.4,3c-2,0-3.3-1.4-3.3-3c0-1.7,1.3-3,3.3-3C142.3,5.5,143.5,6.9,143.6,8.6z
			 M137.1,33V13.9h6.2V33C143.3,33,137.1,33,137.1,33z"/>
		<path class="st3" d="M155.3,8.4v5.5h4.5v4.6h-4.5v6.3c0,2.3,0.5,3.6,2.5,3.6c0.9,0,1.5-0.1,1.9-0.2v4.7c-0.8,0.3-2.3,0.6-4.1,0.6
			c-2.1,0-3.8-0.8-4.7-1.8c-1.1-1.2-1.6-3.1-1.6-5.7v-7.4h-2.6V14h2.6V9.8L155.3,8.4z"/>
		<path class="st3" d="M163.5,27.7c1.2,0.7,3.8,1.6,5.6,1.6c2,0,2.7-0.6,2.7-1.5c0-1-0.6-1.4-3-2.1c-4.3-1.2-6-3.4-6-5.8
			c0-3.6,3.2-6.4,8.3-6.4c2.4,0,4.7,0.6,5.9,1.2l-1.1,4.2c-0.9-0.5-2.8-1.2-4.6-1.2c-1.5,0-2.4,0.5-2.4,1.5c0,0.9,0.9,1.4,3.4,2.1
			c3.9,1.1,5.6,2.9,5.6,5.9c0,3.4-2.8,6.2-8.7,6.2c-2.8,0-5.1-0.6-6.8-1.4L163.5,27.7z"/>
		<path class="st3" d="M193.5,33l-0.4-1.9H193c-1.3,1.5-3.4,2.4-5.9,2.4c-4.2,0-6.6-2.9-6.6-5.9c0-5,4.5-7.4,12-7.4V20
			c0-0.9-0.4-2.4-3.8-2.4c-2.1,0-4.4,0.7-5.7,1.5l-1.1-3.9c1.4-0.8,4.2-1.8,7.9-1.8c6.5,0,8.9,3.7,8.9,8.3v6.5
			c0,1.9,0.1,3.7,0.3,4.7L193.5,33L193.5,33z M192.8,24.1c-3.6,0-6,0.8-6,2.9c0,1.4,1,2.2,2.5,2.2c1.7,0,3-1.1,3.4-2.4
			c0.1-0.3,0.1-0.7,0.1-1.1V24.1z"/>
	</g>
</g>
</svg>
