<?xml version="1.0" encoding="utf-8"?>
<!-- Generator: Adobe Illustrator 27.8.1, SVG Export Plug-In . SVG Version: 6.00 Build 0)  -->
<svg version="1.1" id="Layer_1" xmlns="http://www.w3.org/2000/svg" xmlns:xlink="http://www.w3.org/1999/xlink" x="0px" y="0px"
	 viewBox="0 0 217 46" style="enable-background:new 0 0 217 46;" xml:space="preserve">
<style type="text/css">
	.st0{fill:#5F6FFF;}
	.st1{display:none;fill:#000B6D;}
	.st2{fill:#000B6D;}
</style>
<path class="st0" d="M23,0c12.7,0,23,10.3,23,23v16.1c0,1.8-0.7,3.6-2,4.9c-1.3,1.3-3,2-4.9,2h-15V35.9c0-2.3,0.1-4.7,1.3-6.6
	c0.9-1.4,2-2.6,3.4-3.5c1.4-0.9,2.9-1.5,4.5-1.8l0.4-0.1c0.2-0.1,0.3-0.2,0.5-0.3c0.1-0.2,0.2-0.3,0.2-0.5s-0.1-0.4-0.2-0.5
	c-0.1-0.2-0.3-0.3-0.5-0.3l-0.4-0.1c-2.4-0.4-4.6-1.5-6.3-3.2c-1.7-1.7-2.8-3.9-3.2-6.3l-0.1-0.4c-0.1-0.2-0.2-0.3-0.3-0.5
	c-0.2-0.1-0.3-0.2-0.5-0.2s-0.4,0.1-0.5,0.2c-0.2,0.1-0.3,0.3-0.3,0.5l-0.1,0.4c-0.3,1.6-0.9,3.2-1.8,4.5c-0.9,1.4-2.1,2.5-3.5,3.4
	c-2,1.2-4.3,1.3-6.6,1.3H0C0.6,9.7,10.7,0,23,0z"/>
<path class="st0" d="M0,24.1h10.1c2.3,0,4.7,0.1,6.6,1.3c1.5,0.9,2.8,2.2,3.8,3.8c1.2,2,1.3,4.3,1.3,6.6V46h-15
	c-1.8,0-3.6-0.7-4.9-2c-1.3-1.3-2-3-2-4.9V24.1z M46,2.3c0,0.6-0.2,1.2-0.7,1.6c-0.4,0.4-1,0.7-1.6,0.7s-1.2-0.2-1.6-0.7
	c-0.4-0.4-0.7-1-0.7-1.6s0.2-1.2,0.7-1.6c0.4-0.4,1-0.7,1.6-0.7s1.2,0.2,1.6,0.7C45.8,1.1,46,1.7,46,2.3z"/>
<path class="st1" d="M54.1,66.3v-3.8h5.5c0.7,0,1.4-0.1,2-0.4s1.1-0.7,1.4-1.3c0.3-0.6,0.5-1.2,0.5-2c0-0.8-0.2-1.4-0.5-2
	c-0.3-0.6-0.8-1-1.4-1.3c-0.6-0.3-1.2-0.4-2-0.4h-5.5v-3.8h6c1.5,0,2.9,0.3,4.1,0.9c1.2,0.6,2.2,1.5,2.9,2.6c0.7,1.1,1.1,2.4,1.1,4
	c0,1.5-0.4,2.9-1.1,4c-0.7,1.1-1.7,2-2.9,2.6c-1.2,0.6-2.6,0.9-4.1,0.9H54.1z M50.7,75.1V51.2h4.6v23.9H50.7z M71.1,75.1V58.7h4.5
	v16.4H71.1z M75.6,66l-1.7-1.2c0.2-2,0.8-3.6,1.8-4.8c1-1.2,2.4-1.8,4.2-1.8c0.8,0,1.5,0.1,2.1,0.4c0.6,0.2,1.2,0.7,1.7,1.3
	l-2.8,3.2c-0.2-0.3-0.6-0.5-0.9-0.6c-0.3-0.1-0.7-0.2-1.2-0.2c-1,0-1.7,0.3-2.3,0.9C75.9,63.9,75.6,64.8,75.6,66z M92.7,75.5
	c-1.7,0-3.3-0.4-4.6-1.1c-1.3-0.7-2.4-1.8-3.2-3.1c-0.8-1.3-1.2-2.8-1.2-4.4c0-1.6,0.4-3.1,1.1-4.4c0.8-1.3,1.8-2.3,3.1-3.1
	c1.3-0.8,2.8-1.2,4.4-1.2c1.6,0,3,0.4,4.2,1.1c1.2,0.7,2.2,1.7,2.9,2.9c0.7,1.2,1.1,2.6,1.1,4.2c0,0.3,0,0.6-0.1,0.9
	c0,0.3-0.1,0.6-0.2,1l-13.8,0v-3.3l11.7,0l-1.8,1.4c0-1-0.2-1.8-0.5-2.4c-0.3-0.7-0.7-1.2-1.3-1.5c-0.6-0.4-1.3-0.5-2.1-0.5
	c-0.9,0-1.7,0.2-2.3,0.6c-0.7,0.4-1.2,0.9-1.5,1.7C88.2,65,88,65.9,88,66.8c0,1,0.2,1.9,0.5,2.6c0.4,0.7,0.9,1.3,1.6,1.7
	c0.7,0.4,1.5,0.6,2.4,0.6c0.8,0,1.6-0.1,2.3-0.4c0.7-0.3,1.3-0.7,1.8-1.3l2.6,2.6c-0.8,0.9-1.8,1.6-2.9,2.1
	C95.2,75.2,94,75.5,92.7,75.5z M108.9,75.5c-0.9,0-1.8-0.1-2.8-0.4c-0.9-0.2-1.7-0.6-2.4-1c-0.7-0.5-1.4-1-1.9-1.6l2.7-2.7
	c0.6,0.6,1.2,1.1,2,1.4s1.6,0.5,2.5,0.5c0.7,0,1.3-0.1,1.6-0.3c0.4-0.2,0.6-0.5,0.6-0.9c0-0.5-0.2-0.8-0.6-1.1
	c-0.4-0.2-0.9-0.5-1.5-0.6c-0.6-0.2-1.3-0.4-2-0.6c-0.7-0.2-1.3-0.5-2-0.9c-0.6-0.4-1.2-0.8-1.6-1.5c-0.4-0.6-0.6-1.5-0.6-2.4
	c0-1,0.2-1.9,0.7-2.7c0.5-0.8,1.3-1.4,2.2-1.8c1-0.4,2.1-0.6,3.4-0.6c1.4,0,2.6,0.2,3.7,0.7c1.1,0.5,2,1.2,2.8,2.1l-2.7,2.7
	c-0.5-0.6-1.1-1.1-1.7-1.3c-0.6-0.3-1.3-0.4-2-0.4c-0.7,0-1.2,0.1-1.5,0.3c-0.3,0.2-0.5,0.5-0.5,0.9c0,0.4,0.2,0.7,0.6,1
	c0.4,0.2,0.9,0.4,1.6,0.6c0.6,0.2,1.3,0.4,2,0.6c0.7,0.2,1.4,0.5,2,0.9c0.6,0.4,1.1,0.9,1.5,1.5c0.4,0.6,0.6,1.5,0.6,2.4
	c0,1.6-0.6,2.9-1.7,3.8C112.4,75,110.8,75.5,108.9,75.5z M126.1,75.5c-1.7,0-3.2-0.4-4.5-1.1c-1.3-0.7-2.4-1.8-3.2-3.1
	c-0.8-1.3-1.2-2.7-1.2-4.4c0-1.6,0.4-3.1,1.2-4.4c0.8-1.3,1.8-2.3,3.2-3.1c1.4-0.8,2.9-1.2,4.5-1.2c1.3,0,2.5,0.2,3.6,0.7
	c1.1,0.5,2,1.2,2.8,2l-2.9,2.9c-0.4-0.5-1-0.8-1.6-1.1c-0.6-0.2-1.2-0.4-2-0.4c-0.8,0-1.6,0.2-2.2,0.6c-0.6,0.4-1.1,0.9-1.5,1.5
	c-0.4,0.6-0.5,1.4-0.5,2.3c0,0.9,0.2,1.6,0.5,2.3c0.4,0.7,0.9,1.2,1.5,1.6c0.7,0.4,1.4,0.5,2.2,0.5c0.7,0,1.4-0.1,2-0.4
	c0.6-0.3,1.1-0.7,1.6-1.2l2.9,2.9c-0.8,0.9-1.8,1.6-2.9,2.1S127.4,75.5,126.1,75.5z M135.1,75.1V58.7h4.5v16.4H135.1z M139.5,66
	l-1.7-1.2c0.2-2,0.8-3.6,1.8-4.8c1-1.2,2.4-1.8,4.2-1.8c0.8,0,1.5,0.1,2.1,0.4c0.6,0.2,1.2,0.7,1.7,1.3l-2.8,3.2
	c-0.2-0.3-0.6-0.5-0.9-0.6c-0.3-0.1-0.7-0.2-1.2-0.2c-1,0-1.7,0.3-2.3,0.9C139.8,63.9,139.5,64.8,139.5,66z M149.2,75.1V58.7h4.5
	v16.4H149.2z M151.4,56.1c-0.7,0-1.3-0.2-1.8-0.7c-0.5-0.5-0.7-1.1-0.7-1.8c0-0.7,0.2-1.3,0.7-1.8s1.1-0.7,1.8-0.7
	c0.7,0,1.3,0.2,1.8,0.7c0.5,0.5,0.7,1.1,0.7,1.8c0,0.7-0.2,1.3-0.7,1.8C152.8,55.8,152.2,56.1,151.4,56.1z M166.7,75.5
	c-1.2,0-2.2-0.2-3.2-0.7c-1-0.5-1.7-1.2-2.3-2c-0.6-0.8-0.9-1.8-0.9-2.9V64c0-1.1,0.4-2.1,0.9-2.9c0.6-0.9,1.3-1.5,2.3-2
	c1-0.5,2-0.7,3.2-0.7c1.5,0,2.9,0.4,4.1,1.1c1.2,0.7,2.1,1.8,2.8,3.1c0.7,1.3,1.1,2.8,1.1,4.4c0,1.6-0.4,3.1-1.1,4.4
	c-0.7,1.3-1.6,2.3-2.8,3.1C169.6,75.1,168.3,75.5,166.7,75.5z M166,71.4c0.8,0,1.5-0.2,2.2-0.5c0.6-0.4,1.1-0.9,1.5-1.6
	c0.4-0.7,0.5-1.5,0.5-2.3c0-0.9-0.2-1.6-0.5-2.3c-0.3-0.7-0.8-1.2-1.5-1.6c-0.6-0.4-1.4-0.6-2.2-0.6c-0.8,0-1.5,0.2-2.1,0.6
	c-0.6,0.4-1.1,0.9-1.5,1.6c-0.3,0.7-0.5,1.4-0.5,2.3c0,0.9,0.2,1.7,0.5,2.3c0.4,0.7,0.9,1.2,1.5,1.6C164.4,71.2,165.1,71.4,166,71.4
	z M157.6,82V58.7h4.5V63l-0.7,4l0.7,4v11H157.6z M179.6,75.1V51.9h4.5v23.3H179.6z M175.8,62.6v-3.9h12.1v3.9H175.8z M197.8,75.5
	c-1.7,0-3.2-0.4-4.5-1.1c-1.3-0.8-2.4-1.8-3.2-3.1c-0.8-1.3-1.2-2.8-1.2-4.4s0.4-3,1.2-4.3c0.8-1.3,1.8-2.3,3.2-3.1
	c1.3-0.8,2.8-1.2,4.5-1.2c1.7,0,3.2,0.4,4.5,1.2c1.3,0.7,2.4,1.8,3.2,3.1c0.8,1.3,1.2,2.7,1.2,4.3s-0.4,3.1-1.2,4.4
	c-0.8,1.3-1.8,2.3-3.2,3.1C200.9,75.1,199.4,75.5,197.8,75.5z M197.7,71.3c0.8,0,1.6-0.2,2.2-0.5c0.7-0.4,1.2-0.9,1.5-1.6
	c0.4-0.7,0.5-1.5,0.5-2.3c0-0.9-0.2-1.6-0.5-2.3c-0.4-0.7-0.9-1.2-1.5-1.5c-0.6-0.4-1.4-0.6-2.2-0.6c-0.8,0-1.5,0.2-2.2,0.6
	c-0.6,0.4-1.1,0.9-1.5,1.5c-0.4,0.7-0.5,1.4-0.5,2.3c0,0.9,0.2,1.6,0.5,2.3c0.4,0.7,0.9,1.2,1.5,1.6
	C196.2,71.1,196.9,71.3,197.7,71.3z"/>
<g>
	<g>
		<path class="st2" d="M53.5,10.4c1.6-0.3,5.1-0.6,8.3-0.6c4,0,6.2,0.4,8.1,1.3c2,0.9,3.5,2.7,3.5,5.3c0,2.3-1.4,4.5-4.5,5.5v0.1
			c3,0.8,5.4,3,5.4,6.5c0,2.5-1.2,4.4-3,5.7c-2,1.5-5.4,2.3-10.9,2.3c-3.3,0-5.6-0.2-7-0.4V10.4z M59.7,20.3h2.2
			c3.6,0,5.3-1.2,5.3-3.1c0-2-1.7-2.9-4.6-2.9c-1.5,0-2.4,0.1-2.9,0.2V20.3z M59.7,32c0.7,0.1,1.5,0.1,2.7,0.1c2.9,0,5.5-1,5.5-3.8
			c0-2.6-2.5-3.6-5.8-3.6h-2.3V32z"/>
		<path class="st2" d="M99,26.5c0,6.7-5.1,10.2-11,10.2c-5.9,0-10.7-3.7-10.7-9.8c0-5.9,4.2-10.2,11.1-10.2
			C94.7,16.8,99,20.9,99,26.5z M83.7,26.8c0,3.3,1.7,5.6,4.4,5.6c2.5,0,4.3-2,4.3-5.7c0-2.9-1.3-5.6-4.3-5.6
			C85,21.1,83.7,23.9,83.7,26.8z"/>
		<path class="st2" d="M102.9,8.4h6.2v27.9h-6.2V8.4z"/>
		<path class="st2" d="M114.2,23.5c0-2.5-0.1-4.5-0.2-6.2h5.4l0.3,2.8h0.1c0.7-1.1,2.7-3.3,6.3-3.3c4,0,7.4,2.5,7.4,8.6v11h-6.2
			V26.2c0-2.7-1-4.5-3.4-4.5c-1.9,0-2.9,1.3-3.4,2.4c-0.2,0.4-0.2,0.9-0.2,1.4v10.8h-6.2V23.5z"/>
		<path class="st2" d="M145.2,11.9c0,1.7-1.2,3-3.4,3c-2,0-3.3-1.4-3.3-3c0-1.7,1.3-3,3.3-3C143.9,8.8,145.1,10.2,145.2,11.9z
			 M138.7,36.3V17.2h6.2v19.1H138.7z"/>
		<path class="st2" d="M156.9,11.7v5.5h4.5v4.6h-4.5v6.3c0,2.3,0.5,3.6,2.5,3.6c0.9,0,1.5-0.1,1.9-0.2l0,4.7
			c-0.8,0.3-2.3,0.6-4.1,0.6c-2.1,0-3.8-0.8-4.7-1.8c-1.1-1.2-1.6-3.1-1.6-5.7v-7.4h-2.6v-4.6h2.6v-4.2L156.9,11.7z"/>
		<path class="st2" d="M165.1,31c1.2,0.7,3.8,1.6,5.6,1.6c2,0,2.7-0.6,2.7-1.5c0-1-0.6-1.4-3-2.1c-4.3-1.2-6-3.4-6-5.8
			c0-3.6,3.2-6.4,8.3-6.4c2.4,0,4.7,0.6,5.9,1.2l-1.1,4.2c-0.9-0.5-2.8-1.2-4.6-1.2c-1.5,0-2.4,0.5-2.4,1.5c0,0.9,0.9,1.4,3.4,2.1
			c3.9,1.1,5.6,2.9,5.6,5.9c0,3.4-2.8,6.2-8.7,6.2c-2.8,0-5.1-0.6-6.8-1.4L165.1,31z"/>
		<path class="st2" d="M195.1,36.3l-0.4-1.9h-0.1c-1.3,1.5-3.4,2.4-5.9,2.4c-4.2,0-6.6-2.9-6.6-5.9c0-5,4.5-7.4,12-7.4v-0.2
			c0-0.9-0.4-2.4-3.8-2.4c-2.1,0-4.4,0.7-5.7,1.5l-1.1-3.9c1.4-0.8,4.2-1.8,7.9-1.8c6.5,0,8.9,3.7,8.9,8.3v6.5
			c0,1.9,0.1,3.7,0.3,4.7H195.1z M194.4,27.4c-3.6,0-6,0.8-6,2.9c0,1.4,1,2.2,2.5,2.2c1.7,0,3-1.1,3.4-2.4c0.1-0.3,0.1-0.7,0.1-1.1
			V27.4z"/>
	</g>
</g>
</svg>
